<svg xmlns="http://www.w3.org/2000/svg" xmlns:xlink="http://www.w3.org/1999/xlink" width="48" zoomAndPan="magnify" viewBox="0 0 36 36.000001" height="48" preserveAspectRatio="xMidYMid meet" version="1.0"><defs><clipPath id="53b55a82f6"><path d="M 0.488281 0 L 35.511719 0 L 35.511719 35.027344 L 0.488281 35.027344 Z M 0.488281 0 " clip-rule="nonzero"/></clipPath></defs><g clip-path="url(#53b55a82f6)"><path fill="#ffffff" d="M 30.386719 5.132812 C 27.082031 1.824219 22.683594 0.00390625 18.003906 0.00390625 C 13.324219 0.00390625 8.925781 1.824219 5.617188 5.132812 C 2.308594 8.441406 0.488281 12.839844 0.488281 17.515625 C 0.488281 22.195312 2.3125 26.59375 5.617188 29.902344 C 8.925781 33.210938 13.324219 35.03125 18.003906 35.03125 C 22.683594 35.03125 27.078125 33.210938 30.386719 29.902344 C 33.699219 26.59375 35.519531 22.195312 35.519531 17.515625 C 35.519531 12.839844 33.695312 8.441406 30.386719 5.132812 Z M 26.789062 24.769531 C 26.789062 25.605469 26.109375 26.285156 25.273438 26.285156 L 10.722656 26.285156 C 9.886719 26.285156 9.207031 25.605469 9.207031 24.769531 L 9.207031 24.398438 C 9.207031 23.5625 9.886719 22.882812 10.722656 22.882812 L 25.273438 22.882812 C 26.109375 22.882812 26.789062 23.5625 26.789062 24.398438 Z M 26.789062 17.703125 C 26.789062 18.539062 26.109375 19.21875 25.273438 19.21875 L 10.722656 19.21875 C 9.886719 19.21875 9.207031 18.539062 9.207031 17.703125 L 9.207031 17.332031 C 9.207031 16.496094 9.886719 15.816406 10.722656 15.816406 L 25.273438 15.816406 C 26.109375 15.816406 26.789062 16.496094 26.789062 17.332031 Z M 26.789062 10.636719 C 26.789062 11.472656 26.109375 12.152344 25.273438 12.152344 L 10.722656 12.152344 C 9.886719 12.152344 9.207031 11.472656 9.207031 10.636719 L 9.207031 10.265625 C 9.207031 9.429688 9.886719 8.746094 10.722656 8.746094 L 25.273438 8.746094 C 26.109375 8.746094 26.789062 9.429688 26.789062 10.265625 Z M 26.789062 10.636719 " fill-opacity="1" fill-rule="nonzero"/></g></svg>