<svg xmlns="http://www.w3.org/2000/svg" xmlns:xlink="http://www.w3.org/1999/xlink" width="48" zoomAndPan="magnify" viewBox="0 0 36 36.000001" height="48" preserveAspectRatio="xMidYMid meet" version="1.0"><defs><clipPath id="212ef59e66"><path d="M 0.488281 0 L 35.511719 0 L 35.511719 35.027344 L 0.488281 35.027344 Z M 0.488281 0 " clip-rule="nonzero"/></clipPath></defs><g clip-path="url(#212ef59e66)"><path fill="#ffffff" d="M 18 33.003906 C 9.457031 33.003906 2.507812 26.054688 2.507812 17.511719 C 2.507812 8.972656 9.457031 2.023438 18 2.023438 C 26.539062 2.023438 33.488281 8.972656 33.488281 17.511719 C 33.488281 26.054688 26.539062 33.003906 18 33.003906 Z M 30.371094 5.140625 C 27.066406 1.835938 22.671875 0.015625 18 0.015625 C 13.324219 0.015625 8.933594 1.835938 5.628906 5.140625 C 2.324219 8.445312 0.503906 12.839844 0.503906 17.511719 C 0.503906 22.1875 2.324219 26.582031 5.628906 29.886719 C 8.933594 33.191406 13.324219 35.011719 18 35.011719 C 22.671875 35.011719 27.066406 33.191406 30.371094 29.886719 C 33.675781 26.582031 35.496094 22.1875 35.496094 17.511719 C 35.496094 12.839844 33.675781 8.445312 30.371094 5.140625 " fill-opacity="1" fill-rule="nonzero"/><path fill="#ffffff" d="M 18 2.039062 C 9.46875 2.039062 2.527344 8.980469 2.527344 17.511719 C 2.527344 26.046875 9.46875 32.988281 18 32.988281 C 26.53125 32.988281 33.472656 26.046875 33.472656 17.511719 C 33.472656 8.980469 26.53125 2.039062 18 2.039062 Z M 18 33.019531 C 9.449219 33.019531 2.492188 26.0625 2.492188 17.511719 C 2.492188 8.964844 9.449219 2.007812 18 2.007812 C 26.550781 2.007812 33.503906 8.964844 33.503906 17.511719 C 33.503906 26.0625 26.550781 33.019531 18 33.019531 Z M 18 0.03125 C 13.332031 0.03125 8.941406 1.851562 5.636719 5.152344 C 2.335938 8.453125 0.519531 12.84375 0.519531 17.511719 C 0.519531 22.183594 2.335938 26.570312 5.636719 29.875 C 8.941406 33.175781 13.332031 34.996094 18 34.996094 C 22.667969 34.996094 27.058594 33.175781 30.359375 29.875 C 33.664062 26.570312 35.480469 22.183594 35.480469 17.511719 C 35.480469 12.84375 33.664062 8.453125 30.359375 5.152344 C 27.058594 1.851562 22.667969 0.03125 18 0.03125 Z M 18 35.027344 C 13.320312 35.027344 8.921875 33.203125 5.617188 29.898438 C 2.308594 26.589844 0.488281 22.191406 0.488281 17.511719 C 0.488281 12.835938 2.308594 8.4375 5.617188 5.128906 C 8.921875 1.820312 13.320312 0 18 0 C 22.675781 0 27.074219 1.820312 30.382812 5.128906 C 33.691406 8.4375 35.511719 12.835938 35.511719 17.511719 C 35.511719 22.191406 33.691406 26.589844 30.382812 29.898438 C 27.074219 33.203125 22.675781 35.027344 18 35.027344 " fill-opacity="1" fill-rule="nonzero"/></g><path fill="#ffffff" d="M 26.195312 11.019531 L 9.800781 11.019531 C 9.246094 11.019531 8.796875 11.46875 8.796875 12.023438 C 8.796875 12.578125 9.246094 13.027344 9.800781 13.027344 L 26.195312 13.027344 C 26.75 13.027344 27.199219 12.578125 27.199219 12.023438 C 27.199219 11.46875 26.75 11.019531 26.195312 11.019531 " fill-opacity="1" fill-rule="nonzero"/><path fill="#ffffff" d="M 9.800781 11.035156 C 9.257812 11.035156 8.816406 11.476562 8.816406 12.023438 C 8.816406 12.566406 9.257812 13.011719 9.800781 13.011719 L 26.195312 13.011719 C 26.742188 13.011719 27.183594 12.566406 27.183594 12.023438 C 27.183594 11.476562 26.742188 11.035156 26.195312 11.035156 Z M 26.195312 13.042969 L 9.800781 13.042969 C 9.238281 13.042969 8.78125 12.585938 8.78125 12.023438 C 8.78125 11.460938 9.238281 11.003906 9.800781 11.003906 L 26.195312 11.003906 C 26.757812 11.003906 27.214844 11.460938 27.214844 12.023438 C 27.214844 12.585938 26.757812 13.042969 26.195312 13.042969 " fill-opacity="1" fill-rule="nonzero"/><path fill="#ffffff" d="M 26.195312 16.507812 L 9.800781 16.507812 C 9.246094 16.507812 8.796875 16.957031 8.796875 17.511719 C 8.796875 18.066406 9.246094 18.515625 9.800781 18.515625 L 26.195312 18.515625 C 26.75 18.515625 27.199219 18.066406 27.199219 17.511719 C 27.199219 16.957031 26.75 16.507812 26.195312 16.507812 " fill-opacity="1" fill-rule="nonzero"/><path fill="#ffffff" d="M 9.800781 16.523438 C 9.257812 16.523438 8.816406 16.96875 8.816406 17.511719 C 8.816406 18.058594 9.257812 18.5 9.800781 18.5 L 26.195312 18.5 C 26.742188 18.5 27.183594 18.058594 27.183594 17.511719 C 27.183594 16.96875 26.742188 16.523438 26.195312 16.523438 Z M 26.195312 18.53125 L 9.800781 18.53125 C 9.238281 18.53125 8.78125 18.074219 8.78125 17.511719 C 8.78125 16.949219 9.238281 16.492188 9.800781 16.492188 L 26.195312 16.492188 C 26.757812 16.492188 27.214844 16.949219 27.214844 17.511719 C 27.214844 18.074219 26.757812 18.53125 26.195312 18.53125 " fill-opacity="1" fill-rule="nonzero"/><path fill="#ffffff" d="M 26.195312 22 L 9.800781 22 C 9.246094 22 8.796875 22.449219 8.796875 23.003906 C 8.796875 23.558594 9.246094 24.007812 9.800781 24.007812 L 26.195312 24.007812 C 26.75 24.007812 27.199219 23.558594 27.199219 23.003906 C 27.199219 22.449219 26.75 22 26.195312 22 " fill-opacity="1" fill-rule="nonzero"/><path fill="#ffffff" d="M 9.800781 22.015625 C 9.257812 22.015625 8.816406 22.457031 8.816406 23.003906 C 8.816406 23.546875 9.257812 23.992188 9.800781 23.992188 L 26.195312 23.992188 C 26.742188 23.992188 27.183594 23.546875 27.183594 23.003906 C 27.183594 22.457031 26.742188 22.015625 26.195312 22.015625 Z M 26.195312 24.023438 L 9.800781 24.023438 C 9.238281 24.023438 8.78125 23.566406 8.78125 23.003906 C 8.78125 22.441406 9.238281 21.984375 9.800781 21.984375 L 26.195312 21.984375 C 26.757812 21.984375 27.214844 22.441406 27.214844 23.003906 C 27.214844 23.566406 26.757812 24.023438 26.195312 24.023438 " fill-opacity="1" fill-rule="nonzero"/></svg>